<svg width="80" height="80" viewBox="0 0 80 80" fill="none" xmlns="http://www.w3.org/2000/svg">
<path d="M72 38.5C72.8284 38.5 73.5 39.1716 73.5 40C73.5 40.8284 72.8284 41.5 72 41.5V38.5ZM6.93934 41.0607C6.35355 40.4749 6.35355 39.5251 6.93934 38.9393L16.4853 29.3934C17.0711 28.8076 18.0208 28.8076 18.6066 29.3934C19.1924 29.9792 19.1924 30.9289 18.6066 31.5147L10.1213 40L18.6066 48.4853C19.1924 49.0711 19.1924 50.0208 18.6066 50.6066C18.0208 51.1924 17.0711 51.1924 16.4853 50.6066L6.93934 41.0607ZM72 41.5H8V38.5H72V41.5Z" fill="#E47F2D"/>
</svg>
