<svg width="80" height="80" viewBox="0 0 80 80" fill="none" xmlns="http://www.w3.org/2000/svg">
<path d="M8 38.5C7.17157 38.5 6.5 39.1716 6.5 40C6.5 40.8284 7.17157 41.5 8 41.5V38.5ZM73.0607 41.0607C73.6464 40.4749 73.6464 39.5251 73.0607 38.9393L63.5147 29.3934C62.9289 28.8076 61.9792 28.8076 61.3934 29.3934C60.8076 29.9792 60.8076 30.9289 61.3934 31.5147L69.8787 40L61.3934 48.4853C60.8076 49.0711 60.8076 50.0208 61.3934 50.6066C61.9792 51.1924 62.9289 51.1924 63.5147 50.6066L73.0607 41.0607ZM8 41.5H72V38.5H8V41.5Z" fill="#E47F2D"/>
</svg>
