<svg width="24" height="24" viewBox="0 0 24 24" fill="none" xmlns="http://www.w3.org/2000/svg">
<path d="M21.7505 20.6895L16.0865 15.0255C17.4475 13.3915 18.1263 11.2956 17.9815 9.17392C17.8366 7.05222 16.8794 5.06804 15.3089 3.63413C13.7384 2.20023 11.6755 1.427 9.54942 1.47531C7.42333 1.52362 5.39772 2.38974 3.89396 3.8935C2.3902 5.39726 1.52408 7.42288 1.47577 9.54896C1.42746 11.6751 2.20068 13.7379 3.63459 15.3084C5.0685 16.8789 7.05268 17.8362 9.17438 17.981C11.2961 18.1258 13.3919 17.4471 15.026 16.086L20.69 21.75L21.7505 20.6895ZM3.00045 9.75C3.00045 8.41497 3.39633 7.10993 4.13803 5.9999C4.87973 4.88986 5.93394 4.0247 7.16734 3.51381C8.40074 3.00292 9.75794 2.86924 11.0673 3.12969C12.3767 3.39014 13.5794 4.03302 14.5234 4.97702C15.4674 5.92103 16.1103 7.12376 16.3708 8.43314C16.6312 9.74251 16.4975 11.0997 15.9866 12.3331C15.4757 13.5665 14.6106 14.6207 13.5006 15.3624C12.3905 16.1041 11.0855 16.5 9.75045 16.5C7.96085 16.498 6.24512 15.7862 4.97967 14.5208C3.71423 13.2553 3.00244 11.5396 3.00045 9.75Z" fill="white" stroke="white"/>
</svg>
